<?xml version="1.0" encoding="utf-8"?>
<!-- Generator: Adobe Illustrator 19.0.0, SVG Export Plug-In . SVG Version: 6.00 Build 0)  -->
<svg version="1.1" id="Layer_1" xmlns="http://www.w3.org/2000/svg" xmlns:xlink="http://www.w3.org/1999/xlink" x="0px" y="0px"
	 viewBox="0 0 200 200" style="enable-background:new 0 0 200 200;" xml:space="preserve">
<style type="text/css">
	.st0{fill:#FFFFFF;}
</style>
<path id="XMLID_2_" class="st0" d="M116.1,91.2c-0.2,0-1,0.1-1.2,0.2c-1,1.1-4,4.8-5.9,10.7c-0.9,2.9-6.9,4.7-7.3,5.6
	c-0.4,1-3,5.7-10.9,13c0,0-0.1,0.1-0.1,0.1c-0.4,0.2-2.7,1.7-3.4,4c-0.8,2.5-8.9,10.8-14.2,14.4c-5.3,3.6-9.7,4.4-11.5,4.6
	c0,0-0.1,0-0.1,0c-1,0.3-11.9,3.8-13,4.2c-1.2,0.4-15,8.1-19.8,8.1c-4.3,0-7.6,3.4-8.2,4.1c-0.1,0.1-0.2,0.1-0.3,0.2
	c-1.2,0.5-9.2,4.2-10.6,4c-1.5-0.2-4.4-0.6,0-3.1s6-5.4,6.2-6.2c0.2-0.8,1.7-7.3,7.2-4.1c0.1,0,0.1,0.1,0.2,0.1
	c0.5,0.1,2.9,0.5,6.4-2.7c4-3.7,7.1-7.5,11.7-8.5c4.6-1,15-5.4,16.6-6.5c0.6-0.4,1.5-1,2.5-1.6c0.7-0.4,0.3-1.5-0.5-1.4
	c-7,1.2-20.9,3.5-22.4,3.8c-1.8,0.4-3.8,0.4-4.6-0.7c-0.1-0.2-0.4-0.3-0.6-0.2c-1.7,0-8.2,0.4-15.2,4.4c0,0-2.8,1.5-4.5,3.9
	c-0.1,0.1-0.1,0.1-0.2,0.2c-1.1,0.7-9.8,6.1-10.5,6.5c-0.8,0.4-3.5-3.1,0-5.6c3.5-2.5,5.4-6.4,5.2-7.1c-0.2-0.8,0.6-6.4,5.2-3.6
	c0.1,0.1,0.2,0.1,0.4,0.1c0.8,0,3.6-0.1,5.6-2.7c2.3-3.1,10.8-6.5,15.4-5.4c0,0,0,0,0.1,0c0.5,0.1,6.9,0.8,11.7-2.5
	c5-3.5,15-8.5,19.4-9.8c4.4-1.3,13.1-5.3,12.4-10.2c0-0.1,0-0.2,0-0.3c0.3-0.8,1.3-4.7-1.6-3.9c-3.3,1-6.7,3.9-7.9,3.7
	c-1-0.2-3,2.3-3.4,2.8c0,0.1-0.1,0.1-0.2,0.2c-1,0.7-9.5,6.4-12.2,7.4c-2.8,1.1-4.7,3-6.5,3.3c-0.1,0-0.1,0-0.2,0.1
	c-0.6,0.3-4.2,1.8-6.3,0.7c-2-1-5.5,0.4-6.2,0.7c-0.1,0-0.2,0.1-0.3,0.1c-0.9,0-4.4-0.4-0.2-3.8c0,0,0,0,0.1,0
	c0.4-0.3,5.5-3.6,8.1-2.5c2.7,1.2,5.2,0.2,7.1-1.3c1.9-1.5,8.7-8.3,10.5-9.4c1.8-1.1,3.5-3.5,5.7-4.5c0.1-0.1,0.2-0.2,0.3-0.3
	c0.4-0.7,2.3-3.3,6.4-5.1c0.1-0.1,0.2-0.1,0.3-0.2c0.4-0.6,1.9-2.6,3.3-4.5c1.2-1.5,5.4-3.5,9.1-2.7c1.3,0.3,2.6,0.1,3.9-0.3
	c1.5-0.6,3.8-1,6.7,0c0,0,2.3,0.2,1-2.7c-1.1-2.3-1.2-6.7-1-9c0-0.5-0.4-0.9-0.8-0.8c-0.3,0-0.7,0-0.9-0.4v0c-0.5-0.8-1.3-2-2.2-2.1
	c-1.2-0.1-2.5,0.8-2.8,3.2c-0.3,2.8-1.5,4.2-2.7,5c-0.7,0.5-1.5-0.4-1-1.1l0,0c0,0-2.9,1.7-3.7,1.9c-0.8,0.2,2.3-1.7,2.5-2.5
	c0.2-0.8-2.1,1.5-2.9,1.2c0,0,3.1-1.9,3.3-3.1s1.4-6.2,2.9-8.3c1-1.4,4.2-1.9,6.6,0.3c0.2,0.2,0.4,0.2,0.6,0.2
	c0.6-0.1,1.9-0.2,2.5,0.4c0.3,0.3,0.7,0.3,1,0.1c1.7-1.4,6.1-4.3,11.7-2.8c5.6,1.6,8.7,5.7,9.7,7.3c0.2,0.3,0.1,0.8-0.2,1
	c-1.1,0.9-3.5,2.9-3.5,3.6c0,1-0.4,4,1.2,6.2c1.2,1.6-0.7,1.7-1.8,1.6c-0.4,0-0.7,0.2-0.8,0.5c-0.3,1-0.6,2.7,1.4,2.3
	c2.5-0.5,5.9-4,7.6-3.9c0.2,0,0.4-0.1,0.6-0.2c0.9-0.8,3.9-3.3,7.7-4.3c0.9-0.2,3.5-1.1,4.3-1.5c3-1.4,9.3-4.7,17.5-6.7
	c0,0,4.4-1,5-4c0.6-3,4.3-7.1,5.7-11.1c0.1-0.2,0.2-0.3,0.4-0.4c0.7-0.4,2.7-1.1,1.3,2.9c-0.1,0.3,0,0.6,0.2,0.8
	c0.2,0.2,0.4,0.6-0.2,1.3c-1,1.2-2.2,4.8-2.7,5.6s0,1.7,1.5,1.5c1.5-0.2,4.4-1.5,5,0c0.6,1.5-1.4,2.1-3.5,2.7
	c-0.8,0.2-1.7,0.6-2.3,1.5s-3.5,0.4-4.2,1c-0.8,0.6-9.1,6.5-11,7.5s-8.1,4.6-10.4,5s-10.4,6.2-11.2,6.4
	C124.4,87.6,120.1,90.6,116.1,91.2z"/>
<path id="XMLID_1_" class="st0" d="M197.9,46.1c0,0,4.6-4.6,0-7.9c-5.1-3.6-14.4-2.4-19.3,1.7c-6,5.2-3.3,9.9,1.3,11.1
	C185.8,52.4,193.3,51,197.9,46.1z"/>
</svg>
