<?xml version="1.0" encoding="utf-8"?>
<!-- Generator: Adobe Illustrator 19.0.0, SVG Export Plug-In . SVG Version: 6.00 Build 0)  -->
<svg version="1.1" id="Layer_1" xmlns="http://www.w3.org/2000/svg" xmlns:xlink="http://www.w3.org/1999/xlink" x="0px" y="0px"
	 viewBox="0 0 200 200" style="enable-background:new 0 0 200 200;" xml:space="preserve">
<style type="text/css">
	.st0{display:none;fill:#FFFFFF;}
	.st1{display:none;}
	.st2{display:inline;fill:#FFFFFF;}
	.st3{fill:#FFFFFF;}
</style>
<g id="ultimate">
	<path id="XMLID_2_" class="st0" d="M116.1,91.2c-0.2,0-1,0.1-1.2,0.2c-1,1.1-4,4.8-5.9,10.7c-0.9,2.9-6.9,4.7-7.3,5.6
		c-0.4,1-3,5.7-10.9,13c0,0-0.1,0.1-0.1,0.1c-0.4,0.2-2.7,1.7-3.4,4c-0.8,2.5-8.9,10.8-14.2,14.4c-5.3,3.6-9.7,4.4-11.5,4.6
		c0,0-0.1,0-0.1,0c-1,0.3-11.9,3.8-13,4.2c-1.2,0.4-15,8.1-19.8,8.1c-4.3,0-7.6,3.4-8.2,4.1c-0.1,0.1-0.2,0.1-0.3,0.2
		c-1.2,0.5-9.2,4.2-10.6,4c-1.5-0.2-4.4-0.6,0-3.1s6-5.4,6.2-6.2c0.2-0.8,1.7-7.3,7.2-4.1c0.1,0,0.1,0.1,0.2,0.1
		c0.5,0.1,2.9,0.5,6.4-2.7c4-3.7,7.1-7.5,11.7-8.5c4.6-1,15-5.4,16.6-6.5c0.6-0.4,1.5-1,2.5-1.6c0.7-0.4,0.3-1.5-0.5-1.4
		c-7,1.2-20.9,3.5-22.4,3.8c-1.8,0.4-3.8,0.4-4.6-0.7c-0.1-0.2-0.4-0.3-0.6-0.2c-1.7,0-8.2,0.4-15.2,4.4c0,0-2.8,1.5-4.5,3.9
		c-0.1,0.1-0.1,0.1-0.2,0.2c-1.1,0.7-9.8,6.1-10.5,6.5c-0.8,0.4-3.5-3.1,0-5.6c3.5-2.5,5.4-6.4,5.2-7.1c-0.2-0.8,0.6-6.4,5.2-3.6
		c0.1,0.1,0.2,0.1,0.4,0.1c0.8,0,3.6-0.1,5.6-2.7c2.3-3.1,10.8-6.5,15.4-5.4c0,0,0,0,0.1,0c0.5,0.1,6.9,0.8,11.7-2.5
		c5-3.5,15-8.5,19.4-9.8c4.4-1.3,13.1-5.3,12.4-10.2c0-0.1,0-0.2,0-0.3c0.3-0.8,1.3-4.7-1.6-3.9c-3.3,1-6.7,3.9-7.9,3.7
		c-1-0.2-3,2.3-3.4,2.8c0,0.1-0.1,0.1-0.2,0.2c-1,0.7-9.5,6.4-12.2,7.4c-2.8,1.1-4.7,3-6.5,3.3c-0.1,0-0.1,0-0.2,0.1
		c-0.6,0.3-4.2,1.8-6.3,0.7c-2-1-5.5,0.4-6.2,0.7c-0.1,0-0.2,0.1-0.3,0.1c-0.9,0-4.4-0.4-0.2-3.8c0,0,0,0,0.1,0
		c0.4-0.3,5.5-3.6,8.1-2.5c2.7,1.2,5.2,0.2,7.1-1.3c1.9-1.5,8.7-8.3,10.5-9.4c1.8-1.1,3.5-3.5,5.7-4.5c0.1-0.1,0.2-0.2,0.3-0.3
		c0.4-0.7,2.3-3.3,6.4-5.1c0.1-0.1,0.2-0.1,0.3-0.2c0.4-0.6,1.9-2.6,3.3-4.5c1.2-1.5,5.4-3.5,9.1-2.7c1.3,0.3,2.6,0.1,3.9-0.3
		c1.5-0.6,3.8-1,6.7,0c0,0,2.3,0.2,1-2.7c-1.1-2.3-1.2-6.7-1-9c0-0.5-0.4-0.9-0.8-0.8c-0.3,0-0.7,0-0.9-0.4v0
		c-0.5-0.8-1.3-2-2.2-2.1c-1.2-0.1-2.5,0.8-2.8,3.2c-0.3,2.8-1.5,4.2-2.7,5c-0.7,0.5-1.5-0.4-1-1.1l0,0c0,0-2.9,1.7-3.7,1.9
		c-0.8,0.2,2.3-1.7,2.5-2.5c0.2-0.8-2.1,1.5-2.9,1.2c0,0,3.1-1.9,3.3-3.1s1.4-6.2,2.9-8.3c1-1.4,4.2-1.9,6.6,0.3
		c0.2,0.2,0.4,0.2,0.6,0.2c0.6-0.1,1.9-0.2,2.5,0.4c0.3,0.3,0.7,0.3,1,0.1c1.7-1.4,6.1-4.3,11.7-2.8c5.6,1.6,8.7,5.7,9.7,7.3
		c0.2,0.3,0.1,0.8-0.2,1c-1.1,0.9-3.5,2.9-3.5,3.6c0,1-0.4,4,1.2,6.2c1.2,1.6-0.7,1.7-1.8,1.6c-0.4,0-0.7,0.2-0.8,0.5
		c-0.3,1-0.6,2.7,1.4,2.3c2.5-0.5,5.9-4,7.6-3.9c0.2,0,0.4-0.1,0.6-0.2c0.9-0.8,3.9-3.3,7.7-4.3c0.9-0.2,3.5-1.1,4.3-1.5
		c3-1.4,9.3-4.7,17.5-6.7c0,0,4.4-1,5-4c0.6-3,4.3-7.1,5.7-11.1c0.1-0.2,0.2-0.3,0.4-0.4c0.7-0.4,2.7-1.1,1.3,2.9
		c-0.1,0.3,0,0.6,0.2,0.8c0.2,0.2,0.4,0.6-0.2,1.3c-1,1.2-2.2,4.8-2.7,5.6s0,1.7,1.5,1.5c1.5-0.2,4.4-1.5,5,0
		c0.6,1.5-1.4,2.1-3.5,2.7c-0.8,0.2-1.7,0.6-2.3,1.5s-3.5,0.4-4.2,1c-0.8,0.6-9.1,6.5-11,7.5s-8.1,4.6-10.4,5s-10.4,6.2-11.2,6.4
		C124.4,87.6,120.1,90.6,116.1,91.2z"/>
	<path id="XMLID_1_" class="st0" d="M197.9,46.1c0,0,4.6-4.6,0-7.9c-5.1-3.6-14.4-2.4-19.3,1.7c-6,5.2-3.3,9.9,1.3,11.1
		C185.8,52.4,193.3,51,197.9,46.1z"/>
</g>
<g id="dog_lover" class="st1">
	<path id="XMLID_5_" class="st2" d="M142,20.7c0,0-9.6-11.2-34.1-11.2c0,0-23.5,0-35.5,11.2l-2.7,16.8c0,0,14.3-5.2,38.2-4.6
		c13.7,0.3,28,3.7,38.4,7.6L142,20.7z"/>
	<path id="XMLID_7_" class="st2" d="M155.3,68.8c0.8,0,23.5-5.8,15.5-14.4c-8-8.6-42.5-15-64.1-15.1c0,0-38.3-0.1-51.2,4.7
		c-12.9,4.9-16.1,8.4-13.1,14.3c0,0,2.9,4.9,4.8,6.1c1.8,1.2-0.6,1.5-1.6,2c-1.1,0.5-3,1.5-3.2,2c-0.2,0.5-0.3,3.8,0.2,4.1
		c0.5,0.3,3.5,1.4,3.9,1.4s0.6,6.7,0.6,6.7s-15.2,0.3-19.1,16.4c-3.9,16.1,6.7,22.6,10,23.1c0,0-0.8,9.7,7,12.4
		c7.7,2.7,18.1,2.1,19,2.6c0.9,0.5,4.7,3.5,2,29.4c0,0,0.9,3.5-3.6,1.8c-4.6-1.7-9.6-3.3-10.6-3c-1.1,0.3-5.2,1.2-3.9,9.1
		c0,0,1.1,3.9,2.6,5.5c0,0-3.8,5.9,1.1,10.6c0,0,0.6,3.5,7.7,0c7.1-3.5,8.1-4.6,8.1-4.6s-4.1-4.4-3.2-10.5c0,0,0.9-4.6,2.3,1.4
		c1.4,5.9,5,9.1,7.3,9.4c2.3,0.3,7.9-0.2,9.6-2c0,0,6.5,7.6,13.5,8.5c7,0.9,10.9-0.3,11.5-5.6c0,0,0.9-2.6-1.2-6.4
		c0,0,5.2-7.1,2.4-12.4c-2.7-5.3-19.6,0.8-19.6,0.8s-1.4,0.5-2.6-0.8c-1.2-1.2-12.1-2.4-15-2.1c0,0-1.4,0.6-0.5-2.9
		c0.9-3.5,0.6-19.3-0.2-21.7c-0.8-2.4-1.8-4.7,2-3.5c3.8,1.2,11.7,1.5,11.4,5.8c-0.3,4.2,0.2,6.8-1.5,9.4c-1.7,2.6-0.3,2.6,1.5,2
		c1.8-0.6,5.5-3.3,5.5-3.3s-0.6,3.3-4.4,6.4c-3.8,3-4.6,3.8-4.6,3.8s-1.2,2.1,2.1,1.2c3.3-0.9,12.6-9.1,14.6-15.9c0,0,0.2-4.1,0-4.7
		c-0.2-0.6-5.3,3.6-9,5.3c0,0-1.2-0.6-0.8-2.9c0.5-2.3,0.9-7.6-8.3-10.8c-9.3-3.2-26.7-3.3-28.8-4.2c-2.1-0.9-6.4-0.2-7.7-6.2
		c0,0,5.5-0.8,5.8-2.1c0,0,6.4,4.2,11.1,4.2c0,0,15.2,1.5,24-1.7c0,0,8.3-1.5,10,1.4s4.6,0.5,1.4-3c0,0-3.8-5.3-14.9-3.2
		c-11.1,2.1-22.8,2.4-28.1-2.2c-5.3-4.6-7.7-11.6-7.7-12.5c0-0.9,1.2-1.2,2.3-1.2c1.1,0,16.4-4.7,16.1-8.8c-0.3-4.1-3.3-3.8-7-5
		l-5.6-0.8c0,0-3.2-0.9,2.4-0.9c5.6,0,19.1-2.6,23.5-12c0,0,1.5-2.7,1.5-3.3c0-0.6,5.6,0.2,5.8,0.9c0.2,0.8,0.3,11.4,6.2,13.8
		c5.9,2.4,15.2,6.4,27.1,1.4c0,0,3.8-2.1,3.8-14.3v-3.8c0,0,1.5-0.5,2.4-0.5c0.9,0,3.6-0.9,3.6-2.3c0-1.4,0-3.6,0-3.6
		s0.1-2.3-9.9-2.7S92.7,57.7,87,60.4c0,0-3,1.4-3,3c0,1.7,0,2.4,0,2.4s-6.6-1.4-8.6-0.5c0,0-0.6-2.7-4.7-3c0,0-2.4,0.6-1.2-2
		c0,0,0.5-1.8,0-2.9c0,0,18.4-8.8,42.2-4.6c23.8,4.2,32.2,4.7,35.8,17.1c3.6,12.4,1.7,22.9,3,26.6c1.4,3.6,1.4,10.3,5,17.6
		c3.6,7.3-2,10.5-10.6,9.7c-8.6-0.8-17.4-6.5-20.2-21.7c0,0-0.8-15,2.7-22.6c0,0,3-9-1.4-5.2c0,0-5.8,12.4-6.1,20.5
		c-0.3,8-1.5,20.3,11.8,29.6c0,0,7.9,5.8,15.3,5c0,0,2.4-0.5,1.1,3.3c0,0-0.9,12.4,6.2,20.6c0,0,2.1,1.5-1.1,3
		c-3.2,1.5-19.6,11.5-33.8,13.8c0,0-6.1,1.5-6.8,1.8c-0.8,0.3-0.6,1.8-1.5,2.9c0,0,15.9-1.5,34-9.3c0,0,11.8-5,13.2-6.2
		c0,0,5.9,3.6,7.9,5.5c0,0,2.9,0.3,3.6-0.8c0,0-10.6-9-12.3-14.9c-1.7-5.9-4.2-11.4-3.2-20.5c0,0,0.8-1.1,2.1-1.2
		c0,0,9.3-3.3,4.4-14.9c-4.9-11.5-5.8-25.2-5.6-28.8c0.2-3.6-0.8-11.8-1.8-13.4C152.6,69.2,154.5,68.8,155.3,68.8z M36.1,112.3
		c-5.3-5.3-3.2-12-2.4-14.9c0.8-2.9,1.7-1.2,1.7-1.2c0.8,1.7,6.1,5.8,6.1,5.8c0,8.3,3.5,12.3,3.5,12.3
		C47.9,117.3,40.7,117,36.1,112.3z"/>
</g>
<g id="XMLID_3_">
	<path id="XMLID_8_" class="st3" d="M141.4,61.3c0,0,0.7-8.3-6.3-9c-7-0.7-6.3,1.5-6.3,1.5s-3.7-7.2-13.6-3.1c0,0-10.1-12.5-23,0.4
		c0,0-7.4-3.7-12.3,3.1c0,0-4.2,4.8,1.3,9.6c0,0-0.7,10.5,8.5,9.8c0,0,5.2,7.5,11,5.7c5.9-1.8,6.3-8.3,6.3-8.3s10.9,1.3,7.9-8.6
		c0,0,0.9-5.1,3.3,0s-0.9,11-5,11.3c-4,0.4-4,0.4-4,0.4s0.3,8.1-10.7,8.6c-8.8,0.4-10.3-6.1-10.3-6.1s-9.9,0.4-9.8-11.4
		c0,0-7.1-5.9-1.4-13.6c0,0,6.3-8.1,14.2-3.7c0,0,4.4-6.8,11.8-6.8c8.3,0,8,1.1,13.6,6.4c0,0,5.3-4.2,12.9,2.2
		c0,0,11.2-5.2,14.7,7.4C144.1,57.1,145.2,64.6,141.4,61.3z"/>
	<path id="XMLID_15_" class="st3" d="M169.9,85.6c-4.8-13.8-19.9-13.2-24.3-13.4c-4.4-0.2-3.1-5.3-3.1-5.3c0.7-1.1,0.9-2-2-2.6
		s-19.1-0.9-19.1-0.9c0.4,1.3-0.4,5.7-0.4,5.7c2.5,0.1,10.1,0.4,13.2,0.4c3.1,0,2.8,3.1,2.8,3.1c-0.2,2.6,5,33.3,5,33.3
		c2.8,9.8,0.4,36.8,0.2,39.6c-0.2,2.8-3.5,4.8-3.5,4.8c-4.6,1.8-20.8,3.3-20.8,3.3c1.5,1.3,2.4,5.3,2.4,5.3c4.2,0.9,19-3.1,21.9-3.7
		c2.9-0.6,4.6-3.5,4.5-4.2c-0.1-0.7,1.9-8.6,1.5-11c-0.4-2.4,1.7-6.6,3.7-7.4c2-0.7,7-3.5,7-3.5C171.2,122.2,174.7,99.4,169.9,85.6z
		 M161.1,113.4c-5.2,12.5-13.4,14.4-12.7,4.6c0,0-2.7-27.6-4.1-31.6c-1.4-4,5.9-4.6,12.4-1.7C163.1,87.6,166.2,100.9,161.1,113.4z
		 M162,79.9c0,0-7.7-3.9-11.2-3.9c-3.5,0-0.7-2.8,1.7-2c2.4,0.7,10.3,2.2,12.3,5.9S163.7,80.7,162,79.9z"/>
	<path id="XMLID_27_" class="st3" d="M119,163.7c0,0-0.2-0.5,0.1-0.7c0.3-0.2-0.6-2.7-1.6-4.1c0,0,1.4-1.6-2-5.2
		c0,0-3.3-3.3-8.4-0.9c0,0-5.9,3-8.2,7.8s0.5,8.7,2.1,9.8c1.7,1.1,2.9,0.2,2.9,0.2s4,3.3,5.2,1.6c0,0,1.3,0.1,2.1,0.7
		c0.8,0.6,3.6,0.2,3.2-0.6c-0.3-0.7,0.4-0.4,1-0.2c0.6,0.1,3.3,0.5,2.9-1.2c-0.5-1.7-0.4-1.8,0.1-2.1
		C118.8,168.6,120.5,167,119,163.7z M117,160.4c0,0,0.3,1.2-1.5,0.6c-1.7-0.6-3.5-1.6-5.6-1.7c-0.4,0-0.7-0.3-0.8-0.7
		c-0.1-0.8,0-2,1.2-2C111.7,156.5,115.8,157.2,117,160.4z M109.5,153.5c3.2-0.7,5.3,1.6,5.7,2.2c0.9,1.4-1.4,0.7-1.7,0.6
		c-0.4-0.1-2.7-0.9-4-0.6C109.5,155.7,106.3,154.2,109.5,153.5z M109.3,161.7c0.4-1.6,1.5-1,2.5-0.4c1,0.6,0.5,3.9,0.5,3.9
		c-0.1,1-0.1,0.7-2.2,0.5c-2.4-0.1-3.9-0.5-4.4-2c-0.5-1.2,1.3-1.3,2.4-1.4C109.2,162.4,109.3,161.7,109.3,161.7z M101.2,169.5
		c-0.4-0.4-3.2-3-2.2-6.3c1-3.3,2.4,0.1,2.4,0.1c-0.2,1.7,0,3.7,0.3,4.4C101.8,168.1,102.6,170.7,101.2,169.5z M102.7,157.4
		c3.2-3.2,5.2-1,5.1,0c-0.1,1,0,2.2,0,2.2s0.4,1.5-1.1,1.7c-1.5,0.2-3.7,1-4,0.8C102.5,161.9,99.5,160.6,102.7,157.4z M106.5,170.6
		c-3.3-0.8-3.6-4.4-3.8-5.9c-0.1-1.2,0.3-1.7,1.1-1.7c0.4,0,0.7,0.3,0.8,0.7c0.4,2.1,1.5,3.7,2.3,5.4
		C107.8,170.8,106.5,170.6,106.5,170.6z M111.4,171.9c0,0-2.6-0.4-3.8-2.9c-1.3-2.5,0.1-2.7,1.1-1.9c0.6,0.5,1.6,1.5,2.3,2.1
		c0.6,0.5,1.1,0.9,1.4,1.6C112.7,171.4,113.1,172,111.4,171.9z M116.2,170.9c-1.8-0.3-2.4-0.3-4.4-2.2c-1.6-1.6,0.3-1.5,0.9-1.4
		s1-0.3,1-0.3s-0.4-2.6,1-1.4c2,1.7,2.3,5,2.3,5C117.2,171.1,116.2,170.9,116.2,170.9z M117.4,167.1c-0.7-0.4-1.1-0.8-1.5-1.5
		c-0.5-0.8-1.5-1.8-1.9-2.5c-0.7-1.1-0.4-2.5,2-1s2.6,4.1,2.6,4.1C118.6,167.9,118,167.4,117.4,167.1z"/>
	<path id="XMLID_9_" class="st3" d="M72.2,179.8c0,0,0.6-0.2,0.8,0.1c0.2,0.3,3.1-0.6,4.7-1.8c0,0,1.8,1.6,5.9-2.2
		c0,0,3.8-3.7,1-9.3c0,0-3.4-6.6-8.8-9.1c-5.4-2.5-9.9,0.5-11.2,2.4c-1.3,1.8-0.3,3.3-0.3,3.3s-3.8,4.4-1.9,5.7c0,0-0.1,1.4-0.8,2.3
		c-0.7,0.9-0.2,3.9,0.6,3.6c0.8-0.4,0.4,0.5,0.3,1.2c-0.2,0.7-0.5,3.7,1.4,3.2c1.9-0.5,2.1-0.4,2.4,0.1
		C66.6,179.6,68.4,181.5,72.2,179.8z M75.9,177.6c0,0-1.4,0.4-0.6-1.7c0.7-1.9,1.8-3.8,1.9-6.2c0-0.4,0.3-0.8,0.8-0.8
		c0.9-0.1,2.3,0,2.3,1.3C80.3,171.8,79.5,176.3,75.9,177.6z M83.7,169.4c0.8,3.6-1.8,5.9-2.5,6.3c-1.6,1-0.8-1.5-0.7-1.9
		c0.1-0.4,1-3,0.7-4.4C81.2,169.4,82.9,165.8,83.7,169.4z M74.4,169c1.8,0.4,1.2,1.6,0.5,2.8c-0.7,1.2-4.4,0.6-4.4,0.6
		c-1.1-0.1-0.7-0.2-0.6-2.4c0.2-2.7,0.6-4.3,2.2-4.9c1.4-0.5,1.5,1.4,1.6,2.6C73.6,169,74.4,169,74.4,169z M65.6,160.2
		c0.4-0.5,3.4-3.5,7.1-2.5c3.7,1.1-0.1,2.6-0.1,2.6c-1.9-0.2-4.2,0-5,0.3C67.1,160.8,64.2,161.6,65.6,160.2z M79.3,161.8
		c3.7,3.6,1.1,5.8,0,5.6c-1.1-0.1-2.5,0-2.5,0s-1.7,0.4-1.9-1.2c-0.2-1.6-1.1-4.1-0.9-4.4C74.2,161.5,75.7,158.3,79.3,161.8z
		 M64.4,166c0.9-3.7,5-4,6.7-4.2c1.4-0.2,2,0.3,2,1.2c0,0.4-0.3,0.8-0.8,0.8c-2.4,0.4-4.2,1.7-6.1,2.6C64.1,167.4,64.4,166,64.4,166
		z M62.9,171.4c0,0,0.5-2.8,3.3-4.2c2.8-1.4,3.1,0.1,2.1,1.3c-0.6,0.7-1.7,1.8-2.4,2.6c-0.5,0.7-1,1.2-1.8,1.5
		C63.4,172.8,62.7,173.3,62.9,171.4z M64,176.7c0.3-2,0.3-2.7,2.5-4.9c1.8-1.7,1.7,0.4,1.6,1c-0.1,0.6,0.4,1.2,0.4,1.2
		s2.9-0.4,1.6,1.1c-1.9,2.2-5.7,2.6-5.7,2.6C63.7,177.8,64,176.7,64,176.7z M68.3,178.1c0.4-0.8,0.9-1.2,1.7-1.6
		c0.9-0.5,2.1-1.6,2.8-2.1c1.3-0.8,2.8-0.5,1.1,2.2c-1.7,2.6-4.6,2.9-4.6,2.9C67.4,179.4,68,178.8,68.3,178.1z"/>
	<path id="XMLID_36_" class="st3" d="M102,153.4c0,0-3.4,3.5-4.1,5.6c0,0-4.2,0.1-4.7-0.1s-6.6-4.4-8.6-4.9c-2-0.5-4.3-2.1-4.3-2.1
		s4.4,0.3,6.1,0C87.7,151.5,98.2,154,102,153.4z"/>
	<path id="XMLID_25_" class="st3" d="M93.3,88.1c0,0,36.4-1.1,41.4,1.4c0,0,6.2,27.6,4.6,40.3c0,0-0.1,12.4-1.2,14.4
		c-1.1,1.9,1,2.3-4.1,3.6s-27.9,4-39.5,1.4c0,0,7.3-6.3,5.9-17.2c0,0,0.4-9.4,2.3-11.5c1.9-2.1,0.6-6.9-4.1-5c0,0-3,2.8-12.1,5
		c0,0-0.3-5.6-2.6-9.2s-2.1-7.5-1.5-11.8s1.5-10.2,1.5-10.2l3.7-0.3c0,0-1.2,21.6-1.2,22.2s1.5,13.6,2.5,4.1S91.6,90.6,93.3,88.1z"
		/>
	<path id="XMLID_38_" class="st3" d="M81.8,76.8c0,0-4.3-3.2-5.6-7.9c0,0-3,31.6-4.1,35c0,0,2.6-1.9,4-3.4c1.4-1.5,2.9-1.2,2.9-1.2
		L81.8,76.8z"/>
	<path id="XMLID_43_" class="st3" d="M100.8,117.1c0,0-4.3,3.8-7.5,4c-3.2,0.3-9.7,3.6-9.7,3.6c-2.6,1.4-6.9,9.1-9.9,11.6
		c-3,2.5-3.5,0.1-3.5-0.6c0-0.6,2.2-2.4,8.6-7.7c6.3-5.3,4.9-11.5,4.2-13c-0.6-1.5-3.5-7.3-3.6-8.3c-0.1-1-0.9-5.6-1.1-4.9
		c-0.2,0.7-3.9,4.6-9,7.8c-5.2,3.2-5.8,13.1-5.8,13.1c0,6.2,0.6,7.8-2,11.2c-2.6,3.4-3.4-0.8-1.1-5.2c2.3-4.4,3.4-12.7,0.8-18.1
		c-2.6-5.4-9.6-7.2-11.4-8.6c-1.8-1.4-11.7-9.6-11.7-9.6c0.9,3.4-4.2,15.5-4.2,15.5c-3.9,11.1,4.4,18.9,7.1,20.4
		c2.7,1.6,11.8,5.6,11.8,5.6c1.9,2.7-4.9,0-4.9,0c-2.8-3.1-8.6-5-13-2.6c-4.3,2.4-8.4,0.5-8.4,0.5c-2.1-0.6-1.1,0.9-1.1,0.9
		s3.5,9.5,9,12.9c5.5,3.4,12.8,0.6,18.5-0.9c5.7-1.5,4.8,0.4,4.8,0.4c-1.5,2.7-7.2,2.6-7.2,2.6c-10.3-0.4-11.4,2.6-12,4.1
		s-2.8,9.5-2.9,11c-0.1,1.5-4.2,6.3-3,5.7c1.2-0.6,5.3-0.9,6.8-0.7c1.5,0.1,9.6,3.4,9.6,3.4c3.5,1.7,10.4,0.5,10.4,0
		s0.5-1.9,0.5-1.9c-0.5-1.3,1.5-4.9,1.5-5.4c0-0.5,0.3-3.8,2.3-6.3c1.9-2.5,6.8-2.8,7.2-3c0.4-0.2-0.3-1.2-0.6-2.7
		c-0.4-1.5-2.9-3.8-2.9-3.8c0.4-2.8,3.8,3.1,3.8,3.1c4.5,4.7,7.8,4.4,12.4,7.2c4.6,2.8,6.3,6.2,8.1,7.5c1.7,1.3,3.9-0.7,3-2.5
		c-0.8-1.8-8.6-6.7-12.8-7.9c-4.2-1.2-9.4-5.8-9.4-5.8c-2.5-2.9-2.2-4.6,0.6-2.8c4,2.8,6.1,2.5,13.2,2.2
		c10.5-0.5,11.9-13.8,11.8-15.8c-0.1-2,0.6-6.3,0.6-8C98.5,123.6,100.8,117.1,100.8,117.1z M94.7,125.7c-1.7,2.5-3.5,5.9-4.1,7.6
		c-0.6,1.7-5,8-10.9,8.1c0,0-10,1.7-13.3,0.1c0,0-2.7-1.7-3,2.4c0,0,0.2,9.7-0.5,11.5c0,0-1.2,6.2-7.1,7.3c-6,1.1-5.5-0.6-11.1,0
		c-5.6,0.6-5.6,0.6-5.6,0.6s-2,0.3,1.3-1.4c3.3-1.8,11-0.7,12.8-0.8c1.7-0.1,7,0.5,8.3-6.9c0,0,0.7-6.1,0.4-7.5
		c-0.3-1.5,0.4-5.3,0.4-5.3s0.5-0.6-1.4-0.8c-1.8-0.2-5.8-1.1-13.7,1.3c-7.9,2.4-15.7-3.4-16.2-4.2c-0.5-0.8-2-3.2,1.5-0.6
		c3.5,2.6,8.2,4,14.4,3c0,0,8-2.1,10.8-1.5c-0.3-0.1-2.4-0.8-3.5-10.3c0,0-1.9-11.7-7.9-16.4c0,0-3.7-5.3-3.8-6.3
		c-0.1-0.9,0-1.4,1.3,0.6c1.3,1.9,4,5.1,4.7,5.5c0.6,0.5,4.5,6.2,5.5,9.8c1,3.6,2.7,9,2.9,13.3c0,0,0.8,2.8,5,3.4c0,0,1.2-0.1,1.6-2
		s3-5.7,4.5-7.2c1.9-2,7.3-8.6,7-13c-0.3-4.4,0.2-7,1-6.3c0.8,0.6,0.6,8.1,0,9.5c0,0-0.6,5.2-7.1,11.1c-5,4.5-5.1,9.2-2.9,9.7
		c2.2,0.5,14.8,2.2,20.1-2.9c0,0,2.3-2.7,3.2-4.8c0.9-2.1,4.8-8.1,5.5-8.3C95.5,123.7,96.5,123.2,94.7,125.7z"/>
	<path id="XMLID_37_" class="st3" d="M63,105.5c0,0-2.8-9.5,2.2-11c0,0,3.4-1.6,3.7-2.7c0,0,2.3,4.1,1,8.3c0,0-1.4,3.2-3.7,3.9
		S63,105.5,63,105.5z"/>
	<path id="XMLID_40_" class="st3" d="M61.2,105.5c0,0-0.3-8-5.3-11.2c-5-3.2-5.9-4.1-5.9-4.1s-0.6,5.1,1.9,8.4
		c2.5,3.3,4.8,4.1,5.2,4.4C57.5,103.3,60.5,104.4,61.2,105.5z"/>
	<path id="XMLID_44_" class="st3" d="M60.9,94c0,0,3-2,4.7-2.2c0,0,4.8-3.5,3-9.1L68,80.1c0,0-0.8,1.5-3.9,2.6
		C60.9,83.7,59.1,87.9,60.9,94z"/>
	<path id="XMLID_45_" class="st3" d="M59.2,94c0,0-0.6-8.7-4.4-11.3c0,0-5.4-2.7-5.7-3.6c0,0-1.8,6.1,2.3,10
		c0.3,0.3,1.7,1.6,2.1,1.8C55,91.6,58.6,93,59.2,94z"/>
	<path id="XMLID_46_" class="st3" d="M59.7,82.4c0,0,3.4-2.3,4.9-2.3c1.5,0,5.4-3.9,3.6-11.2c0,0-2.2,1.9-3.6,2.1
		C63.2,71.1,58.3,72.6,59.7,82.4z"/>
	<path id="XMLID_47_" class="st3" d="M57.6,82.4c0,0,1.3-7.3-3.3-11.5c0,0-4.3-1.5-5-3c0,0-2.2,2.9-0.5,6.9c1.7,4,5.6,4.7,6.1,5.4
		C55.3,80.8,57.4,81.5,57.6,82.4z"/>
	<path id="XMLID_48_" class="st3" d="M59.5,71.5c0,0,3.4-1.9,4.6-1.9c1.2,0,6.2-2.7,4.9-11c0,0-2.8,1.7-3.7,1.8
		C64.3,60.4,58.8,62.1,59.5,71.5z"/>
	<path id="XMLID_49_" class="st3" d="M57.8,71.1c0,0,1.3-7.7-2.4-10.8c0,0-4.7-1.9-5.3-3.2c0,0-3,5.7,0,8.9c3,3.2,5.8,3.4,6.3,4
		S57.8,71.1,57.8,71.1z"/>
	<path id="XMLID_39_" class="st3" d="M60.2,60.6c0,0,2.4-1.6,6.2-2.6c0,0,5.1-2.6,4.1-10.1c0,0-3.3,1.6-5.1,1.9
		C63.7,50.1,59.3,54.2,60.2,60.6z"/>
	<path id="XMLID_51_" class="st3" d="M58.2,60.6c0,0,2.1-9.2-3.2-12.1c0,0-2.9-0.8-3.4-2.3c0,0-3.1,5.6-0.8,9.2c0,0,2.1,2.2,4.1,2.8
		c2,0.6,3.2,2.8,3.2,2.8L58.2,60.6z"/>
	<path id="XMLID_50_" class="st3" d="M60.3,51.4c0,0,5.6-5.4,5-9.1c-0.6-3.9-2.4-6.3-2.4-6.3s-3.5,4.3-4.3,5.6
		C57.9,42.9,57.4,47.4,60.3,51.4z"/>
	<path id="XMLID_52_" class="st3" d="M74.8,27.9l-4.1,16.5c0,0-0.7,1.7,0.7,1.7c0,0,0.8-0.8,1.2-2.4c0.4-1.7,3.7-15.4,3.7-15.4
		S75.7,26.2,74.8,27.9z"/>
	<path id="XMLID_53_" class="st3" d="M71.4,23.4l-4.1,13.8c0,0-0.7,1.4,0.7,1.4c0,0,0.8-0.6,1.2-2c0.4-1.4,3.7-12.9,3.7-12.9
		S72.4,22,71.4,23.4z"/>
	<path id="XMLID_54_" class="st3" d="M67,20l-4,12.8c0,0-0.4,1.3,1,1.3c0,0,0.4-0.4,0.8-1.7c0.4-1.3,3.7-12.1,3.7-12.1
		S67.9,18.7,67,20z"/>
	<path id="XMLID_55_" class="st3" d="M61.5,22.3l-4.1,14.1c0,0-0.7,1.4,0.7,1.5c0,0,0.8-0.6,1.2-2c0.4-1.4,3.7-13.2,3.7-13.2
		S62.5,20.8,61.5,22.3z"/>
	<path id="XMLID_56_" class="st3" d="M56,26.8L51.9,43c0,0-0.7,1.6,0.7,1.7c0,0,0.8-0.7,1.2-2.4s3.7-15.1,3.7-15.1
		S56.9,25.1,56,26.8z"/>
</g>
</svg>
